# xmcd
#
# Track frame offsets:
#	150
#	16704
#	34539
#	46574
#	69711
#	94554
#	114006
#	142977
#	162113
#	178335
#	196773
#	237821
#	240603
#
# Disc length: 3446 seconds
#
# Revision: 1
# Processed by: cddbd v1.5.2PL0 Copyright (c) Steve Scherf et al.
# Submitted via: EasyCDDAExtractor 9.1.3.1
#
DISCID=910d740d
DTITLE=CLOTAIRE K - BEYROUTH
DYEAR=2000
DGENRE=HIP-HOP
TTITLE0=BEYROUTH ECCEURÈE
TTITLE1=MALAKAN
TTITLE2=FLOTTE
TTITLE3=SAUB AL BAHAR(Banadoora skit)
TTITLE4=LAISSE-LES(BEEP SKIT)
TTITLE5=YA SARYAN !?
TTITLE6=LE CRIMINEL(BOKRA SKIT)
TTITLE7=PAPA
TTITLE8=MAQAM
TTITLE9=BIF BAM BOOM
TTITLE10=VO(Dawn remix)
TTITLE11=Zajal skit
TTITLE12=SAWT L'HEKMA(Asian Dub Foundation feat.CK.)
EXTD=
EXTT0=
EXTT1=
EXTT2=
EXTT3=
EXTT4=
EXTT5=
EXTT6=
EXTT7=
EXTT8=
EXTT9=
EXTT10=
EXTT11=
EXTT12=
PLAYORDER=
